<svg id="Layer_2" data-name="Layer 2" xmlns="http://www.w3.org/2000/svg" xmlns:xlink="http://www.w3.org/1999/xlink" viewBox="0 0 841.89 841.89"><defs><style>.cls-1,.cls-2,.cls-3{fill:none;}.cls-2,.cls-3{stroke:#194786;stroke-width:14.65px;}.cls-2{stroke-linecap:round;stroke-linejoin:round;}.cls-3{stroke-miterlimit:10;}.cls-4{clip-path:url(#clip-path);}</style><clipPath id="clip-path"><rect class="cls-1" x="-861.89" y="1.29" width="841.89" height="839.31"/></clipPath></defs><path class="cls-2" d="M422.62,740.27c-114.25,0-206.86-103-206.86-230.13S308.37,280,422.62,280s206.85,103,206.85,230.12c0,68.28-26.73,129.61-69.18,171.76l-138-153.15V449.38"/><path class="cls-2" d="M327.59,249.34c24.32-20.48,57.92-33.15,95-33.15,46.38,0,87.28,19.79,111.43,49.9"/><circle class="cls-3" cx="422.62" cy="429.59" r="15.32"/><circle class="cls-3" cx="437.94" cy="740.27" r="15.32"/><circle class="cls-3" cx="344.67" cy="103.07" r="15.32"/><circle class="cls-2" cx="120.57" cy="608.91" r="15.32"/><polyline class="cls-2" points="128.95 593.59 166.67 534.64 171.38 454.62 215.76 454.62"/><circle class="cls-2" cx="721.32" cy="608.91" r="15.32"/><polyline class="cls-2" points="716.28 593.59 678.56 534.64 673.85 454.62 629.47 454.62"/><path class="cls-2" d="M371.06,216.19a48.94,48.94,0,0,1,90.25-1.41"/><polyline class="cls-2" points="487.7 86.3 487.7 154.67 447.73 194.64"/><polyline class="cls-2" points="344.67 123.23 344.67 154.67 384.64 194.64"/><polyline class="cls-2" points="672.88 696.14 672.88 652.53 602.28 624.24"/><polyline class="cls-2" points="166.53 696.14 166.53 652.53 237.12 624.24"/><circle class="cls-3" cx="629.47" cy="241.14" r="15.32"/><polyline class="cls-2" points="629.47 266.08 629.47 315.38 567.59 346.01"/><circle class="cls-3" cx="213.85" cy="244.34" r="15.32"/><polyline class="cls-2" points="213.85 269.28 213.85 318.58 275.73 349.21"/><g class="cls-4"><image width="3000" height="2250" transform="translate(-889.07 1.29) scale(0.37 0.37)" xlink:href="../BUG%20-%20Business%20Card.jpg"/></g></svg>